PathFileType	4	(X/Y/Z)	 Patient4_KneeIso.trc
DataRate	CameraRate	NumFrames	NumMarkers	Units	OrigDataRate	OrigDataStartFrame	OrigNumFrames
100	100	6	33	mm	100	932	1863
Frame#	Time	Sacral			L.Shoulder			Chest			R.Shoulder			Neck			R.ASIS			L.ASIS			R.Thigh.Superior			R.Thigh.Lateral			R.Thigh.Inferior			R.Patella			L.Thigh.Superior			L.Thigh.Lateral			L.Thigh.Inferior			L.Patella			L.Shank.Superior			L.Shank.Lateral			L.Shank.Inferior			R.Shank.Superior			R.Shank.Lateral			R.Shank.Inferior			R.Heel			R.Midfoot.Superior			R.Midfoot.Lateral			R.Toe			L.Heel			L.Midfoot.Lateral			L.Midfoot.Superior			L.Toe			L.Elbow			L.Wrist			R.Elbow			R.Wrist			
		X1	Y1	Z1	X2	Y2	Z2	X3	Y3	Z3	X4	Y4	Z4	X5	Y5	Z5	X6	Y6	Z6	X7	Y7	Z7	X8	Y8	Z8	X9	Y9	Z9	X10	Y10	Z10	X11	Y11	Z11	X12	Y12	Z12	X13	Y13	Z13	X14	Y14	Z14	X15	Y15	Z15	X16	Y16	Z16	X17	Y17	Z17	X18	Y18	Z18	X19	Y19	Z19	X20	Y20	Z20	X21	Y21	Z21	X22	Y22	Z22	X23	Y23	Z23	X24	Y24	Z24	X25	Y25	Z25	X26	Y26	Z26	X27	Y27	Z27	X28	Y28	Z28	X29	Y29	Z29	X30	Y30	Z30	X31	Y31	Z31	X32	Y32	Z32	X33	Y33	Z33	

932	9.3100	770.002750	1003.215700	552.960750	554.865300	1444.385700	675.870970	490.543610	1353.350000	507.289340	596.109070	1431.987100	349.384490	589.405640	1489.187100	534.055240	561.346010	935.283200	400.393190	538.358520	958.597230	673.330810	531.225400	729.889530	439.975920	630.892520	619.531560	400.139220	551.153440	567.020570	475.435880	558.932920	482.398710	476.272890	498.041960	742.888550	637.521730	572.157410	633.605470	710.862000	502.097780	546.705440	634.869510	500.408050	473.093050	632.184810	539.664550	405.365300	645.774170	640.376280	303.843020	706.255310	604.745970	184.855590	637.437070	588.790650	394.828740	478.307530	667.634830	288.500980	425.316990	621.825500	197.556900	494.032710	756.777830	36.447360	538.997130	586.515200	89.714450	494.712590	676.531980	28.859100	461.854950	468.262390	37.298550	463.077210	744.699340	34.373520	606.726140	668.860780	30.319450	686.142940	586.097050	91.138080	657.776060	457.900210	40.264180	682.339780	607.145750	1152.789700	875.810300	355.664830	1137.727400	893.635440	704.541440	1200.272100	128.492770	663.935670	1059.947800	-84.207860	
933	9.3200	770.005550	1003.193700	552.736270	554.873050	1444.444700	675.493040	490.547450	1353.335200	506.996860	596.041870	1431.836800	349.141600	589.429440	1489.175000	533.693970	561.371700	935.241520	400.273530	538.391600	958.633060	673.218570	531.093080	729.908390	439.893710	630.821590	619.474430	399.976170	551.026550	567.045840	475.367710	558.704350	482.544040	476.391510	498.000180	742.897890	637.366580	572.117550	633.649290	710.745540	502.081020	546.716490	634.728330	500.387600	473.072240	632.045530	539.662410	405.366790	645.666690	640.396610	303.874210	706.192500	604.752010	184.885480	637.411500	588.814270	394.703950	478.190060	667.515750	288.466430	425.269560	621.743650	197.518400	494.005370	756.763670	36.405240	539.024230	586.544920	89.714690	494.674260	676.569090	28.802710	461.849880	468.248810	37.301190	463.094420	744.674990	34.373660	606.712280	668.859740	30.326670	686.146850	586.090520	91.124000	657.760310	457.858250	40.153400	682.222470	607.118160	1152.972400	875.607540	355.650090	1137.981700	893.575500	704.588560	1200.169600	128.180650	663.908810	1059.808100	-84.498870	
934	9.3300	770.016540	1003.159700	552.580510	554.892640	1444.500700	675.137330	490.501040	1353.341300	506.752080	595.997130	1431.762900	348.841890	589.453250	1489.158800	533.338930	561.341490	935.176510	400.110380	538.378660	958.568420	673.012760	530.993530	729.917790	439.857540	630.601930	619.393740	399.897250	550.919190	567.074830	475.359380	559.065310	482.687260	476.340550	497.997620	742.945190	637.273250	572.116760	633.696590	710.610110	502.082180	546.727170	634.626650	500.387600	473.085750	631.959230	539.661930	405.388370	645.601140	640.359560	303.905060	706.172300	604.725040	184.901860	637.337890	588.710630	394.675260	478.168370	667.353090	288.393860	425.248080	621.810360	197.373140	493.894500	756.772090	36.390330	539.019410	586.574650	89.689060	494.676210	676.527400	28.814630	461.852170	468.239720	37.290990	463.087680	744.678100	34.381680	606.701480	668.863590	30.353670	686.162290	586.090820	91.122510	657.762570	457.877170	40.193450	682.284180	607.129270	1153.172000	875.419370	355.666810	1138.210000	893.495610	704.597660	1200.035500	127.895030	663.868290	1059.686000	-84.719570	
935	9.3400	770.034850	1003.120300	552.347170	554.904850	1444.574100	674.779300	490.506870	1353.326500	506.374790	595.955510	1431.673300	348.545620	589.450130	1489.143400	532.978090	561.370670	935.116940	399.946660	538.412780	958.753110	672.994690	530.897520	729.879640	439.767550	630.497560	619.352840	399.764400	550.871220	567.069460	475.310240	558.992920	482.751100	476.255650	497.963230	742.988280	637.152950	572.074650	633.742130	710.471440	502.060120	546.782230	634.508610	500.369380	473.146510	631.834780	539.657710	405.428280	645.557070	640.332150	303.964290	706.125120	604.722290	184.995030	637.291690	587.914120	394.805210	478.032230	667.271670	288.344420	425.160370	621.730470	197.462660	493.963170	756.796630	36.395480	539.018740	586.532290	89.698940	494.688870	676.524540	28.814120	461.853240	468.271240	37.301500	463.091310	744.737730	34.398270	606.704710	668.873900	30.380080	686.165040	586.090580	91.155530	657.744630	457.894230	40.251580	682.339360	607.136230	1153.363400	875.222530	355.653930	1138.347500	893.422730	704.594970	1199.892900	127.602940	663.842100	1059.542400	-84.982100	
936	9.3500	770.030400	1003.102100	552.135010	554.884090	1444.647300	674.392270	490.430910	1353.299600	506.042050	595.916990	1431.591800	348.166080	589.467040	1489.145100	532.596620	561.360470	935.069030	399.779880	538.455570	958.858700	672.844060	530.824340	729.820740	439.636990	630.402340	619.311890	399.640260	550.771550	567.077760	475.199710	558.857060	482.670010	476.241060	497.937290	743.053890	637.008180	572.061460	633.800540	710.326420	502.103820	546.821350	634.429080	500.407470	473.167790	631.733760	539.718510	405.467470	645.460080	640.384700	304.039670	706.074710	604.752500	185.049590	637.244140	587.853270	394.765230	477.962830	667.208130	288.340000	425.090940	621.688960	197.444060	493.912140	756.768620	36.395260	538.990420	586.604920	89.734530	494.643770	676.515560	28.806010	461.830290	468.271760	37.304870	463.105770	744.751650	34.444410	606.705260	668.904300	30.407490	686.164180	586.094910	91.166920	657.749940	457.952030	40.239540	682.298770	607.157650	1153.577000	874.972350	355.670500	1138.547500	893.347530	704.675230	1199.799900	127.219690	663.816530	1059.419600	-85.253550	
937	9.3600	770.064510	1003.128200	551.932740	554.869510	1444.669800	674.024410	490.405460	1353.334400	505.649020	595.898250	1431.540000	347.706760	589.473820	1489.125400	532.177670	561.328250	934.957890	399.623840	538.438290	958.967470	672.726750	530.739440	729.752260	439.533200	630.291690	619.258180	399.494660	550.717590	567.072080	475.147980	558.710330	482.687380	476.141170	497.913850	743.086670	636.927370	572.102720	633.859500	710.215700	502.158290	546.814450	634.306520	500.474270	473.184270	631.617310	539.717410	405.505550	645.403870	640.375730	304.048830	706.034730	604.753360	185.106450	637.183840	587.848020	394.712460	477.892210	667.069090	288.260620	425.059230	621.617370	197.431340	493.880400	756.784790	36.384460	539.001460	586.556950	89.722870	494.651670	676.532780	28.714070	461.839660	468.282620	37.311870	463.087190	744.767090	34.450480	606.720890	668.916870	30.404180	686.131840	586.130680	91.195620	657.739560	457.951390	40.219100	682.304380	607.133240	1153.739900	874.734130	355.643400	1138.660600	893.218690	704.629700	1199.709000	126.898320	663.772890	1059.260300	-85.562030	
